<svg width="25" height="25" viewBox="0 0 25 25" fill="none" xmlns="http://www.w3.org/2000/svg">
<path d="M12.1406 22.2141V17.3721L8.39062 21.0721L7.68262 20.3641L12.1406 15.9061V13.2141H9.44862L4.99062 17.6721L4.28262 16.9641L7.98263 13.2141H3.14062V12.2141H7.98263L4.28262 8.46411L4.99062 7.75611L9.44862 12.2141H12.1406V9.52211L7.68262 5.06411L8.39062 4.35611L12.1406 8.05611V3.21411H13.1406V8.05611L16.8906 4.35611L17.5986 5.06411L13.1406 9.52211V12.2141H15.8326L20.2906 7.75611L20.9986 8.46411L17.2986 12.2141H22.1406V13.2141H17.2986L20.9986 16.9641L20.2906 17.6721L15.8326 13.2141H13.1406V15.9061L17.5986 20.3641L16.8906 21.0721L13.1406 17.3721V22.2141H12.1406Z" fill="#474747"/>
</svg>
