<svg width="24" height="24" viewBox="0 0 24 24" fill="none" xmlns="http://www.w3.org/2000/svg">
<path d="M4.17149 19.8273H12.9577V15.4342H4.17149V19.8273ZM14.1292 19.8273H18.2294V15.4342H14.1292V19.8273ZM4.17149 14.2627H8.27172V9.87668H4.17149V14.2627ZM9.44321 14.2627H18.2294V9.87668H9.44321V14.2627ZM4.90602 8.72744H17.4949L11.2004 4.01218L4.90602 8.72744ZM4.89196 20.9988C4.37182 20.9988 3.92665 20.8133 3.55646 20.4424C3.18627 20.0714 3.00078 19.6266 3 19.108V9.64589C3 9.34599 3.06717 9.0621 3.2015 8.79422C3.33583 8.52634 3.52092 8.30571 3.75678 8.13232L10.0653 3.37841C10.2394 3.25189 10.4214 3.15699 10.6112 3.09373C10.801 3.03047 10.999 2.99923 11.2051 3.00001C11.4113 3.0008 11.6081 3.03204 11.7956 3.09373C11.983 3.15543 12.163 3.25032 12.3356 3.37841L18.6441 8.13115C18.8808 8.30453 19.0658 8.52556 19.1994 8.79422C19.3337 9.0621 19.4009 9.34599 19.4009 9.64589V19.108C19.4009 19.6282 19.2154 20.0733 18.8444 20.4435C18.4735 20.8137 18.0283 20.9992 17.5089 21L4.89196 20.9988Z" fill="#474747"/>
</svg>
