<svg width="25" height="25" viewBox="0 0 25 25" fill="none" xmlns="http://www.w3.org/2000/svg">
<path d="M21.6406 13.7141V16.7141C21.6406 17.775 21.2192 18.7924 20.4691 19.5425C19.7189 20.2927 18.7015 20.7141 17.6406 20.7141H7.64062C6.57976 20.7141 5.56234 20.2927 4.8122 19.5425C4.06205 18.7924 3.64063 17.775 3.64062 16.7141V14.3141C3.64062 14.155 3.70384 14.0024 3.81636 13.8898C3.92888 13.7773 4.0815 13.7141 4.24062 13.7141H21.6406ZM21.6406 13.7141V7.71411C21.6406 6.65325 21.2192 5.63583 20.4691 4.88568C19.7189 4.13554 18.7015 3.71411 17.6406 3.71411H12.6406M16.6406 20.7141L17.6406 22.7141M8.64062 20.7141L7.64062 22.7141" stroke="#474747" stroke-width="1.5" stroke-linecap="round" stroke-linejoin="round"/>
<path d="M16.0391 8.71411H9.23906C8.90806 8.71411 8.64306 8.44611 8.67906 8.11611C8.82506 6.78911 9.50206 3.71411 12.6391 3.71411C15.7761 3.71411 16.4531 6.78911 16.5991 8.11611C16.6351 8.44611 16.3701 8.71411 16.0391 8.71411Z" stroke="#474747" stroke-width="1.5" stroke-linecap="round" stroke-linejoin="round"/>
</svg>
