<svg width="21" height="18" viewBox="0 0 21 18" fill="none" xmlns="http://www.w3.org/2000/svg">
<path d="M5.39062 0.714111H15.8906C16.5909 0.714077 17.2648 0.981203 17.7749 1.461C18.285 1.94081 18.5928 2.59713 18.6356 3.29611L18.6406 3.46411V6.81811C19.1859 6.97259 19.67 7.29174 20.027 7.73189C20.3839 8.17205 20.5961 8.71173 20.6346 9.27711L20.6406 9.46411V16.9641C20.6406 17.1541 20.5684 17.3371 20.4387 17.4759C20.3089 17.6148 20.1313 17.6992 19.9417 17.7121C19.7522 17.7251 19.5647 17.6656 19.4173 17.5457C19.2699 17.4258 19.1735 17.2544 19.1476 17.0661L19.1406 16.9641V14.7141H2.14062V16.9641C2.14062 17.1453 2.07498 17.3205 1.95586 17.457C1.83673 17.5936 1.67218 17.6825 1.49262 17.7071L1.39062 17.7141C1.20939 17.7141 1.03428 17.6485 0.897694 17.5293C0.761106 17.4102 0.672273 17.2457 0.647625 17.0661L0.640625 16.9641V9.46411C0.640625 8.20511 1.48662 7.14411 2.64062 6.81711V3.46411C2.64059 2.76382 2.90772 2.0899 3.38752 1.57981C3.86732 1.06972 4.52365 0.761893 5.22262 0.719111L5.39062 0.714111ZM17.8906 8.21411H3.39062C3.08117 8.21397 2.78266 8.32862 2.55286 8.53588C2.32306 8.74315 2.17831 9.02828 2.14663 9.33611L2.14062 9.46411V13.2141H19.1406V9.46411C19.1405 9.15483 19.0258 8.85656 18.8185 8.62697C18.6113 8.39739 18.3263 8.25278 18.0186 8.22111L17.8906 8.21411ZM15.8906 2.21411H5.39062C5.08117 2.21397 4.78266 2.32862 4.55286 2.53588C4.32306 2.74315 4.17831 3.02828 4.14663 3.33611L4.14062 3.46411V6.71411H5.64062C5.64062 6.44889 5.74598 6.19454 5.93352 6.007C6.12105 5.81947 6.37541 5.71411 6.64062 5.71411H8.64062C8.88556 5.71414 9.12196 5.80407 9.305 5.96683C9.48803 6.12959 9.60497 6.35386 9.63363 6.59711L9.64062 6.71411H11.6406C11.6406 6.44889 11.746 6.19454 11.9335 6.007C12.1211 5.81947 12.3754 5.71411 12.6406 5.71411H14.6406C14.8856 5.71414 15.122 5.80407 15.305 5.96683C15.488 6.12959 15.605 6.35386 15.6336 6.59711L15.6406 6.71411H17.1406V3.46411C17.1408 3.15465 17.0261 2.85614 16.8189 2.62635C16.6116 2.39655 16.3265 2.2518 16.0186 2.22011L15.8906 2.21411Z" fill="#474747"/>
</svg>
