<svg width="17" height="17" viewBox="0 0 17 17" fill="none" xmlns="http://www.w3.org/2000/svg">
<mask id="mask0_268_8446" style="mask-type:luminance" maskUnits="userSpaceOnUse" x="2" y="2" width="14" height="13">
<path d="M2.82031 7.15312C2.82031 5.89578 2.82031 5.26778 3.21098 4.87712C3.60165 4.48645 4.22965 4.48645 5.48698 4.48645H12.1536C13.411 4.48645 14.039 4.48645 14.4296 4.87712C14.8203 5.26778 14.8203 5.89578 14.8203 7.15312V7.81978H2.82031V7.15312Z" stroke="#C0C0C0" stroke-opacity="0.25" stroke-width="0.8"/>
<path d="M13.487 4.48645H4.15365C3.41727 4.48645 2.82031 5.0834 2.82031 5.81978V13.1531C2.82031 13.8895 3.41727 14.4865 4.15365 14.4865H13.487C14.2234 14.4865 14.8203 13.8895 14.8203 13.1531V5.81978C14.8203 5.0834 14.2234 4.48645 13.487 4.48645Z" stroke="white" stroke-width="0.8"/>
<path d="M5.48828 2.48645V5.81978M12.1549 2.48645V5.81978" stroke="white" stroke-width="0.8" stroke-linecap="round"/>
</mask>
<g mask="url(#mask0_268_8446)">
<path d="M0.820312 0.48645H16.8203V16.4865H0.820312V0.48645Z" fill="#00A859"/>
</g>
<rect x="3.07031" y="7.73645" width="11.5" height="0.5" stroke="#00A859" stroke-width="0.5"/>
</svg>
