<svg width="23" height="20" viewBox="0 0 23 20" fill="none" xmlns="http://www.w3.org/2000/svg">
<path d="M4.64062 18.7141H15.6406C17.5266 18.7141 18.4686 18.7141 19.0546 18.1281C19.6406 17.5421 19.6406 16.6001 19.6406 14.7141V8.71411C19.6406 6.82811 19.6406 5.88611 19.0546 5.30011C18.4686 4.71411 17.5266 4.71411 15.6406 4.71411H7.64062" stroke="#474747" stroke-width="1.5" stroke-linecap="round" stroke-linejoin="round"/>
<path d="M7.64062 18.7141H3.64062C3.11019 18.7141 2.60148 18.5034 2.22641 18.1283C1.85134 17.7533 1.64063 17.2445 1.64062 16.7141M1.64062 16.7141C1.64062 16.1837 1.85134 15.675 2.22641 15.2999C2.60148 14.9248 3.11019 14.7141 3.64062 14.7141C5.52663 14.7141 6.46863 14.7141 7.05463 14.1281C7.64063 13.5421 7.64062 12.6001 7.64062 10.7141V5.71411C7.64062 3.82811 7.64063 2.88611 7.05463 2.30011C6.46863 1.71411 5.52663 1.71411 3.64062 1.71411C3.11019 1.71411 2.60148 1.92482 2.22641 2.2999C1.85134 2.67497 1.64063 3.18368 1.64062 3.71411V16.7141ZM10.6406 14.0711H10.9716C11.2616 14.0711 11.4066 14.0711 11.5286 14.1001C11.6506 14.1281 11.8836 14.2451 12.3486 14.4771C13.9506 15.2791 15.0196 13.8771 15.9446 12.7411C16.4086 12.1711 16.6406 11.8861 16.6406 11.7141C16.6406 11.5421 16.4086 11.2571 15.9446 10.6871C15.0196 9.55111 13.9506 8.14811 12.3486 8.95111C11.8836 9.18311 11.6506 9.30011 11.5286 9.32811C11.4066 9.35811 11.2616 9.35811 10.9716 9.35811H10.6406M19.6406 13.7141H21.6406M19.6406 17.7141H21.6406M19.6406 9.71411H21.6406M19.6406 5.71411H21.6406" stroke="#474747" stroke-width="1.5" stroke-linecap="round" stroke-linejoin="round"/>
</svg>
