<svg width="16" height="16" viewBox="0 0 16 16" fill="none" xmlns="http://www.w3.org/2000/svg">
<path d="M7.99974 12.0001C7.78756 12.0001 7.58408 12.0844 7.43405 12.2344C7.28402 12.3844 7.19974 12.5879 7.19974 12.8001C7.19974 13.0123 7.28402 13.2158 7.43405 13.3658C7.58408 13.5158 7.78756 13.6001 7.99974 13.6001C8.21191 13.6001 8.41539 13.5158 8.56542 13.3658C8.71545 13.2158 8.79974 13.0123 8.79974 12.8001C8.79974 12.5879 8.71545 12.3844 8.56542 12.2344C8.41539 12.0844 8.21191 12.0001 7.99974 12.0001ZM6.39974 12.8001C6.39974 12.3758 6.56831 11.9688 6.86837 11.6687C7.16842 11.3687 7.57539 11.2001 7.99974 11.2001C8.42408 11.2001 8.83105 11.3687 9.13111 11.6687C9.43117 11.9688 9.59974 12.3758 9.59974 12.8001C9.59974 13.2244 9.43117 13.6314 9.13111 13.9315C8.83105 14.2315 8.42408 14.4001 7.99974 14.4001C7.57539 14.4001 7.16842 14.2315 6.86837 13.9315C6.56831 13.6314 6.39974 13.2244 6.39974 12.8001ZM7.99974 1.6001C8.10582 1.6001 8.20756 1.64224 8.28258 1.71726C8.35759 1.79227 8.39974 1.89401 8.39974 2.0001V8.2345L10.9165 5.7169C10.9537 5.67971 10.9979 5.65021 11.0465 5.63008C11.0951 5.60995 11.1471 5.59959 11.1997 5.59959C11.2523 5.59959 11.3044 5.60995 11.353 5.63008C11.4016 5.65021 11.4457 5.67971 11.4829 5.7169C11.5201 5.75409 11.5496 5.79824 11.5698 5.84683C11.5899 5.89542 11.6002 5.9475 11.6002 6.0001C11.6002 6.05269 11.5899 6.10477 11.5698 6.15336C11.5496 6.20196 11.5201 6.24611 11.4829 6.2833L8.28294 9.4833C8.24578 9.52055 8.20164 9.5501 8.15304 9.57027C8.10445 9.59043 8.05235 9.60081 7.99974 9.60081C7.94712 9.60081 7.89503 9.59043 7.84643 9.57027C7.79783 9.5501 7.75369 9.52055 7.71654 9.4833L4.51654 6.2833C4.44143 6.20819 4.39923 6.10632 4.39923 6.0001C4.39923 5.89388 4.44143 5.79201 4.51654 5.7169C4.59165 5.64179 4.69352 5.59959 4.79974 5.59959C4.90596 5.59959 5.00783 5.64179 5.08294 5.7169L7.59974 8.2345V2.0001C7.59974 1.89401 7.64188 1.79227 7.71689 1.71726C7.79191 1.64224 7.89365 1.6001 7.99974 1.6001Z" fill="#474747"/>
</svg>
