<svg width="16" height="16" viewBox="0 0 16 16" fill="none" xmlns="http://www.w3.org/2000/svg">
<path d="M6.79998 3.2002H9.19998C9.19998 2.88194 9.07355 2.57671 8.8485 2.35167C8.62346 2.12662 8.31824 2.0002 7.99998 2.0002C7.68172 2.0002 7.37649 2.12662 7.15145 2.35167C6.9264 2.57671 6.79998 2.88194 6.79998 3.2002ZM5.99998 3.2002C5.99998 2.66976 6.21069 2.16105 6.58576 1.78598C6.96083 1.41091 7.46954 1.2002 7.99998 1.2002C8.53041 1.2002 9.03912 1.41091 9.41419 1.78598C9.78926 2.16105 9.99998 2.66976 9.99998 3.2002H14C14.1061 3.2002 14.2078 3.24234 14.2828 3.31735C14.3578 3.39237 14.4 3.49411 14.4 3.6002C14.4 3.70628 14.3578 3.80802 14.2828 3.88304C14.2078 3.95805 14.1061 4.0002 14 4.0002H13.1568L12.2016 12.2754C12.1341 12.8603 11.8538 13.4001 11.4143 13.7919C10.9747 14.1836 10.4064 14.4002 9.81758 14.4002H6.18238C5.59354 14.4002 5.02527 14.1836 4.58569 13.7919C4.1461 13.4001 3.8659 12.8603 3.79838 12.2754L2.84318 4.0002H1.99998C1.89389 4.0002 1.79215 3.95805 1.71713 3.88304C1.64212 3.80802 1.59998 3.70628 1.59998 3.6002C1.59998 3.49411 1.64212 3.39237 1.71713 3.31735C1.79215 3.24234 1.89389 3.2002 1.99998 3.2002H5.99998ZM4.59278 12.1842C4.63792 12.5741 4.82481 12.9338 5.11791 13.1949C5.41101 13.456 5.78985 13.6002 6.18238 13.6002H9.81758C10.2101 13.6002 10.5889 13.456 10.882 13.1949C11.1751 12.9338 11.362 12.5741 11.4072 12.1842L12.3512 4.0002H3.64878L4.59278 12.1842ZM6.79998 6.0002C6.90606 6.0002 7.0078 6.04234 7.08282 6.11735C7.15783 6.19237 7.19998 6.29411 7.19998 6.4002V11.2002C7.19998 11.3063 7.15783 11.408 7.08282 11.483C7.0078 11.5581 6.90606 11.6002 6.79998 11.6002C6.69389 11.6002 6.59215 11.5581 6.51713 11.483C6.44212 11.408 6.39998 11.3063 6.39998 11.2002V6.4002C6.39998 6.29411 6.44212 6.19237 6.51713 6.11735C6.59215 6.04234 6.69389 6.0002 6.79998 6.0002ZM9.59998 6.4002C9.59998 6.29411 9.55783 6.19237 9.48282 6.11735C9.4078 6.04234 9.30606 6.0002 9.19998 6.0002C9.09389 6.0002 8.99215 6.04234 8.91713 6.11735C8.84212 6.19237 8.79998 6.29411 8.79998 6.4002V11.2002C8.79998 11.3063 8.84212 11.408 8.91713 11.483C8.99215 11.5581 9.09389 11.6002 9.19998 11.6002C9.30606 11.6002 9.4078 11.5581 9.48282 11.483C9.55783 11.408 9.59998 11.3063 9.59998 11.2002V6.4002Z" fill="#474747"/>
</svg>
