<svg width="40" height="40" viewBox="0 0 40 40" fill="none" xmlns="http://www.w3.org/2000/svg">
<rect y="0.00524902" width="40" height="40" rx="20" fill="white"/>
<path d="M15.043 16.1564L18.3036 18.067C20.2043 19.1804 20.9635 19.1804 22.8653 18.067L26.1259 16.1564" stroke="#474747" stroke-width="1.75" stroke-linecap="round" stroke-linejoin="round"/>
<path d="M9.51861 21.6203C9.59065 24.9858 9.62722 26.6691 10.8807 27.9154C12.1342 29.1628 13.8786 29.2056 17.3686 29.2923C19.5187 29.3472 21.6488 29.3472 23.7989 29.2923C27.2889 29.2056 29.0334 29.1628 30.2868 27.9154C31.5403 26.6691 31.5769 24.9858 31.65 21.6203C31.6722 20.5377 31.6722 19.4616 31.65 18.3789C31.5769 15.0134 31.5403 13.3301 30.2868 12.0839C29.0334 10.8365 27.2889 10.7937 23.7989 10.7069C21.6558 10.6534 19.5117 10.6534 17.3686 10.7069C13.8786 10.7937 12.1342 10.8365 10.8807 12.0839C9.62722 13.3301 9.59065 15.0134 9.5175 18.3789C9.49417 19.4593 9.49528 20.54 9.51861 21.6203Z" stroke="#474747" stroke-width="1.75" stroke-linecap="round" stroke-linejoin="round"/>
</svg>
