<svg width="28" height="28" viewBox="0 0 28 28" fill="none" xmlns="http://www.w3.org/2000/svg">
<path d="M10.5013 5.83326C10.1919 5.83326 9.89514 5.95618 9.67634 6.17497C9.45755 6.39376 9.33464 6.69051 9.33464 6.99993C9.33464 7.30935 9.45755 7.60609 9.67634 7.82489C9.89514 8.04368 10.1919 8.1666 10.5013 8.1666C10.8107 8.1666 11.1075 8.04368 11.3263 7.82489C11.5451 7.60609 11.668 7.30935 11.668 6.99993C11.668 6.69051 11.5451 6.39376 11.3263 6.17497C11.1075 5.95618 10.8107 5.83326 10.5013 5.83326ZM7.19964 5.83326C7.44067 5.15014 7.88766 4.5586 8.479 4.14018C9.07034 3.72177 9.7769 3.49707 10.5013 3.49707C11.2257 3.49707 11.9323 3.72177 12.5236 4.14018C13.1149 4.5586 13.5619 5.15014 13.803 5.83326H22.168C22.4774 5.83326 22.7741 5.95618 22.9929 6.17497C23.2117 6.39376 23.3346 6.69051 23.3346 6.99993C23.3346 7.30935 23.2117 7.60609 22.9929 7.82489C22.7741 8.04368 22.4774 8.1666 22.168 8.1666H13.803C13.5619 8.84972 13.1149 9.44126 12.5236 9.85967C11.9323 10.2781 11.2257 10.5028 10.5013 10.5028C9.7769 10.5028 9.07034 10.2781 8.479 9.85967C7.88766 9.44126 7.44067 8.84972 7.19964 8.1666H5.83464C5.52522 8.1666 5.22847 8.04368 5.00968 7.82489C4.79089 7.60609 4.66797 7.30935 4.66797 6.99993C4.66797 6.69051 4.79089 6.39376 5.00968 6.17497C5.22847 5.95618 5.52522 5.83326 5.83464 5.83326H7.19964ZM17.5013 12.8333C17.1919 12.8333 16.8951 12.9562 16.6763 13.175C16.4576 13.3938 16.3346 13.6905 16.3346 13.9999C16.3346 14.3093 16.4576 14.6061 16.6763 14.8249C16.8951 15.0437 17.1919 15.1666 17.5013 15.1666C17.8107 15.1666 18.1075 15.0437 18.3263 14.8249C18.5451 14.6061 18.668 14.3093 18.668 13.9999C18.668 13.6905 18.5451 13.3938 18.3263 13.175C18.1075 12.9562 17.8107 12.8333 17.5013 12.8333ZM14.1996 12.8333C14.4407 12.1501 14.8877 11.5586 15.479 11.1402C16.0703 10.7218 16.7769 10.4971 17.5013 10.4971C18.2257 10.4971 18.9323 10.7218 19.5236 11.1402C20.1149 11.5586 20.5619 12.1501 20.803 12.8333H22.168C22.4774 12.8333 22.7741 12.9562 22.9929 13.175C23.2117 13.3938 23.3346 13.6905 23.3346 13.9999C23.3346 14.3093 23.2117 14.6061 22.9929 14.8249C22.7741 15.0437 22.4774 15.1666 22.168 15.1666H20.803C20.5619 15.8497 20.1149 16.4413 19.5236 16.8597C18.9323 17.2781 18.2257 17.5028 17.5013 17.5028C16.7769 17.5028 16.0703 17.2781 15.479 16.8597C14.8877 16.4413 14.4407 15.8497 14.1996 15.1666H5.83464C5.52522 15.1666 5.22847 15.0437 5.00968 14.8249C4.79089 14.6061 4.66797 14.3093 4.66797 13.9999C4.66797 13.6905 4.79089 13.3938 5.00968 13.175C5.22847 12.9562 5.52522 12.8333 5.83464 12.8333H14.1996ZM10.5013 19.8333C10.1919 19.8333 9.89514 19.9562 9.67634 20.175C9.45755 20.3938 9.33464 20.6905 9.33464 20.9999C9.33464 21.3093 9.45755 21.6061 9.67634 21.8249C9.89514 22.0437 10.1919 22.1666 10.5013 22.1666C10.8107 22.1666 11.1075 22.0437 11.3263 21.8249C11.5451 21.6061 11.668 21.3093 11.668 20.9999C11.668 20.6905 11.5451 20.3938 11.3263 20.175C11.1075 19.9562 10.8107 19.8333 10.5013 19.8333ZM7.19964 19.8333C7.44067 19.1501 7.88766 18.5586 8.479 18.1402C9.07034 17.7218 9.7769 17.4971 10.5013 17.4971C11.2257 17.4971 11.9323 17.7218 12.5236 18.1402C13.1149 18.5586 13.5619 19.1501 13.803 19.8333H22.168C22.4774 19.8333 22.7741 19.9562 22.9929 20.175C23.2117 20.3938 23.3346 20.6905 23.3346 20.9999C23.3346 21.3093 23.2117 21.6061 22.9929 21.8249C22.7741 22.0437 22.4774 22.1666 22.168 22.1666H13.803C13.5619 22.8497 13.1149 23.4413 12.5236 23.8597C11.9323 24.2781 11.2257 24.5028 10.5013 24.5028C9.7769 24.5028 9.07034 24.2781 8.479 23.8597C7.88766 23.4413 7.44067 22.8497 7.19964 22.1666H5.83464C5.52522 22.1666 5.22847 22.0437 5.00968 21.8249C4.79089 21.6061 4.66797 21.3093 4.66797 20.9999C4.66797 20.6905 4.79089 20.3938 5.00968 20.175C5.22847 19.9562 5.52522 19.8333 5.83464 19.8333H7.19964Z" fill="#474747"/>
</svg>
