<svg width="17" height="18" viewBox="0 0 17 18" fill="none" xmlns="http://www.w3.org/2000/svg">
<path d="M1.17149 16.8273H9.95769V12.4342H1.17149V16.8273ZM11.1292 16.8273H15.2294V12.4342H11.1292V16.8273ZM1.17149 11.2627H5.27172V6.87668H1.17149V11.2627ZM6.44321 11.2627H15.2294V6.87668H6.44321V11.2627ZM1.90602 5.72744H14.4949L8.20045 1.01218L1.90602 5.72744ZM1.89196 17.9988C1.37182 17.9988 0.926651 17.8133 0.556459 17.4424C0.186267 17.0714 0.000780995 16.6266 0 16.108V6.64589C0 6.34599 0.0671655 6.0621 0.201497 5.79422C0.335828 5.52634 0.520924 5.30571 0.756784 5.13232L7.06527 0.378406C7.23943 0.251885 7.42141 0.156994 7.61119 0.0937336C7.80097 0.030473 7.99895 -0.000766709 8.20513 1.42865e-05C8.41132 0.000795282 8.60813 0.032035 8.79557 0.0937336C8.98301 0.155432 9.16302 0.250323 9.33562 0.378406L15.6441 5.13115C15.8808 5.30453 16.0658 5.52556 16.1994 5.79422C16.3337 6.0621 16.4009 6.34599 16.4009 6.64589V16.108C16.4009 16.6282 16.2154 17.0733 15.8444 17.4435C15.4735 17.8137 15.0283 17.9992 14.5089 18L1.89196 17.9988Z" fill="#3F7C5F"/>
</svg>
