<svg width="66" height="65" viewBox="0 0 66 65" fill="none" xmlns="http://www.w3.org/2000/svg">
<path d="M59.8978 28.3499L35.5228 6.68319C35.0272 6.24306 34.3873 5.99997 33.7245 5.99997C33.0616 5.99997 32.4218 6.24306 31.9261 6.68319L7.55115 28.3499C7.01386 28.8268 6.68805 29.4977 6.64539 30.2148C6.60272 30.932 6.8467 31.6367 7.32365 32.174C7.80059 32.7113 8.47144 33.0371 9.18861 33.0798C9.90578 33.1225 10.6105 32.8785 11.1478 32.4015L12.0578 31.5917V57.459C12.0578 58.1773 12.3432 58.8662 12.8511 59.3741C13.359 59.882 14.0479 60.1674 14.7661 60.1674H52.6828C53.4011 60.1674 54.09 59.882 54.5979 59.3741C55.1058 58.8662 55.3911 58.1773 55.3911 57.459V31.5917L56.3011 32.4015C56.8384 32.8785 57.5432 33.1225 58.2603 33.0798C58.6155 33.0587 58.9629 32.9678 59.2829 32.8124C59.6029 32.657 59.8892 32.4401 60.1253 32.174C60.3615 31.908 60.5429 31.598 60.6593 31.2619C60.7757 30.9257 60.8247 30.5699 60.8036 30.2148C60.7824 29.8597 60.6916 29.5123 60.5362 29.1923C60.3808 28.8723 60.1638 28.586 59.8978 28.3499ZM26.0978 54.7507C27.7743 54.7507 27.8556 54.7507 27.8556 54.7507H46.9926H26.0978ZM49.9745 54.7507H46.9926H26.0978C23.5838 54.7507 20.4536 54.7507 20.4536 54.7507H17.4745V26.7763L33.7245 12.3328L49.9745 26.7763V54.7507Z" fill="#212121"/>
</svg>
