<svg width="25" height="25" viewBox="0 0 25 25" fill="none" xmlns="http://www.w3.org/2000/svg">
<path d="M14.493 15.4287H14.5M10.5 15.4287H10.507M5.5 15.4287C5.5 14.5095 5.68106 13.5992 6.03284 12.7499C6.38463 11.9006 6.90024 11.129 7.55025 10.479C8.20026 9.82895 8.97194 9.31334 9.82122 8.96155C10.6705 8.60977 11.5807 8.42871 12.5 8.42871C13.4193 8.42871 14.3295 8.60977 15.1788 8.96155C16.0281 9.31334 16.7997 9.82895 17.4497 10.479C18.0998 11.129 18.6154 11.9006 18.9672 12.7499C19.3189 13.5992 19.5 14.5095 19.5 15.4287C19.5 17.2852 18.7625 19.0657 17.4497 20.3785C16.137 21.6912 14.3565 22.4287 12.5 22.4287C10.6435 22.4287 8.86301 21.6912 7.55025 20.3785C6.2375 19.0657 5.5 17.2852 5.5 15.4287Z" stroke="#474747" stroke-width="1.5" stroke-linecap="round" stroke-linejoin="round"/>
<path d="M17 9.92871V6.92871C17 5.73524 16.5259 4.59064 15.682 3.74673C14.8381 2.90282 13.6935 2.42871 12.5 2.42871C11.3065 2.42871 10.1619 2.90282 9.31802 3.74673C8.47411 4.59064 8 5.73524 8 6.92871V9.92871" stroke="#474747" stroke-width="1.5" stroke-linecap="round" stroke-linejoin="round"/>
</svg>
