<svg width="20" height="21" viewBox="0 0 20 21" fill="none" xmlns="http://www.w3.org/2000/svg">
<rect width="20" height="21" fill="#1E1E1E"/>
<g id="OPEN LISTING DETAILS">
<rect x="-948" y="-948.286" width="1440" height="1992" rx="20" fill="white"/>
<g id="Frame 280">
<g clip-path="url(#clip0_217_638)">
<rect x="-32" y="-198.286" width="474" height="347" rx="20" fill="white"/>
<g id="Frame 461">
<g id="streamline-freehand:tag-sale-price" clip-path="url(#clip1_217_638)">
<g id="Group">
<path id="Vector" fill-rule="evenodd" clip-rule="evenodd" d="M18.8956 13.3126C18.219 12.2859 14.654 8.79593 13.7606 7.8526C12.3665 6.37426 11.4056 4.72926 9.58563 4.32093C8.44229 4.05343 2.65562 4.77093 3.57396 5.72343C3.60113 5.75127 3.63359 5.7734 3.66944 5.78851C3.70529 5.80361 3.7438 5.8114 3.78271 5.8114C3.82161 5.8114 3.86012 5.80361 3.89597 5.78851C3.93182 5.7734 3.96429 5.75127 3.99146 5.72343C4.39229 5.33093 7.23979 4.94676 9.43563 5.0301C10.4424 5.38393 11.3028 6.06262 11.8815 6.95926C13.0923 8.47843 17.4006 12.9534 17.9681 13.7218C18.0692 13.8723 18.1556 14.0309 18.2273 14.1976C17.0867 15.9357 15.7 17.4992 14.1106 18.8393C13.568 19.2883 12.9405 19.6236 12.2656 19.8251C10.9992 18.8695 9.79195 17.8379 8.65063 16.7359C7.29442 15.379 6.00697 13.9549 4.79313 12.4693C4.20408 11.6161 3.89481 10.6009 3.90812 9.56426C3.90812 9.49564 3.88086 9.42982 3.83234 9.3813C3.78381 9.33277 3.718 9.30551 3.64937 9.30551C3.58075 9.30551 3.51494 9.33277 3.46641 9.3813C3.41789 9.42982 3.39062 9.49564 3.39062 9.56426C3.49896 11.9184 3.99979 12.5026 5.51979 14.3226C7.2022 16.4974 9.1422 18.46 11.2973 20.1676C11.465 20.4006 11.7043 20.5723 11.9787 20.6567C12.2531 20.7411 12.5476 20.7335 12.8173 20.6351C14.9965 19.9668 17.459 16.8026 18.7115 15.2084C19.179 14.5984 19.4806 14.2226 18.8956 13.3126Z" fill="black"/>
<path id="Vector_2" fill-rule="evenodd" clip-rule="evenodd" d="M7.26564 8.84592C7.58231 7.96092 7.67397 7.47675 6.95731 6.91675C6.76371 6.75414 6.53862 6.63325 6.29614 6.56165C6.05366 6.49005 5.79901 6.46928 5.54814 6.50065C5.29726 6.53202 5.05556 6.61485 4.83818 6.74395C4.62079 6.87305 4.4324 7.04564 4.28481 7.25092C3.56009 6.81295 2.92084 6.24712 2.39814 5.58092C1.42897 4.49592 0.493975 2.68425 1.57981 1.74092C2.03814 1.33175 2.84897 1.54925 3.64231 2.01592C5.47064 3.06008 5.40397 4.15342 5.90481 3.85258C6.60564 3.42758 4.43481 1.54842 3.51647 1.08925C1.35397 -0.00408393 -0.106859 1.46508 0.135641 3.29342C0.435641 5.51425 2.19731 7.01758 4.15147 7.98508C4.53481 10.4409 6.95647 9.73925 7.26564 8.84592ZM6.93231 8.11925C6.90245 8.37191 6.78416 8.60585 6.59837 8.77966C6.41258 8.95347 6.17128 9.05593 5.9172 9.0689C5.66311 9.08188 5.41263 9.00453 5.21011 8.85055C5.00758 8.69656 4.86608 8.47589 4.81064 8.22758C5.17814 8.36092 5.51231 8.36092 5.54564 8.14425C5.57897 7.92758 5.11147 7.69425 4.78564 7.51842C5.72064 6.39925 7.13314 7.43508 6.93231 8.11925ZM19.2381 6.24092C16.2748 4.96342 17.0756 5.31425 12.9348 4.18675C12.8681 4.18675 12.4423 3.97842 12.2081 4.13675C12.1702 4.1726 12.143 4.21822 12.1293 4.26858C12.1157 4.31894 12.1163 4.37209 12.1309 4.42216C12.1456 4.47223 12.1737 4.51728 12.2124 4.55235C12.251 4.58743 12.2986 4.61115 12.3498 4.62092C12.9204 4.78758 13.477 4.99092 14.0198 5.23092C15.5723 5.95259 17.1705 6.5717 18.804 7.08425C19.4973 7.39258 18.3456 9.84758 18.354 10.4234C18.354 10.5008 18.3847 10.575 18.4394 10.6297C18.4941 10.6844 18.5683 10.7151 18.6456 10.7151C18.723 10.7151 18.7972 10.6844 18.8519 10.6297C18.9066 10.575 18.9373 10.5008 18.9373 10.4234C18.9623 9.73092 20.8498 7.12675 19.2381 6.24092Z" fill="black"/>
</g>
</g>
</g>
</g>
<rect x="-31.25" y="-197.536" width="472.5" height="345.5" rx="19.25" stroke="#EBEBEB" stroke-width="1.5"/>
</g>
</g>
<defs>
<clipPath id="clip0_217_638">
<rect x="-32" y="-198.286" width="474" height="347" rx="20" fill="white"/>
</clipPath>
<clipPath id="clip1_217_638">
<rect width="20" height="20" fill="white" transform="translate(0 0.714111)"/>
</clipPath>
</defs>
</svg>
