<svg width="66" height="65" viewBox="0 0 66 65" fill="none" xmlns="http://www.w3.org/2000/svg">
<path d="M59.3158 27.7659L34.9408 6.09924C34.4452 5.6591 33.8053 5.41602 33.1425 5.41602C32.4796 5.41602 31.8398 5.6591 31.3441 6.09924L6.96914 27.7659C6.43186 28.2429 6.10604 28.9137 6.06338 29.6309C6.02071 30.348 6.26469 31.0528 6.74164 31.5901C7.21859 32.1274 7.88944 32.4532 8.60661 32.4958C9.32378 32.5385 10.0285 32.2945 10.5658 31.8176L11.4758 31.0078V56.8751C11.4758 57.5934 11.7611 58.2822 12.2691 58.7902C12.777 59.2981 13.4658 59.5834 14.1841 59.5834H52.1008C52.8191 59.5834 53.508 59.2981 54.0159 58.7902C54.5238 58.2822 54.8091 57.5934 54.8091 56.8751V31.0078L55.7191 31.8176C56.2564 32.2945 56.9612 32.5385 57.6783 32.4958C58.0334 32.4747 58.3809 32.3838 58.7009 32.2284C59.0209 32.073 59.3071 31.8561 59.5433 31.5901C59.7795 31.324 59.9609 31.0141 60.0773 30.6779C60.1937 30.3418 60.2427 29.986 60.2216 29.6309C60.2004 29.2758 60.1096 28.9283 59.9542 28.6083C59.7988 28.2883 59.5818 28.0021 59.3158 27.7659ZM25.5158 54.1667C26.0674 52.5836 27.0979 51.2113 28.4645 50.2403C29.8311 49.2692 31.466 48.7475 33.1425 48.7475C34.8189 48.7475 36.4539 49.2692 37.8205 50.2403C39.187 51.2113 40.2176 52.5836 40.7691 54.1667H25.5158ZM29.08 39.2709C29.08 38.4674 29.3182 37.682 29.7646 37.0139C30.211 36.3458 30.8455 35.8251 31.5878 35.5176C32.3301 35.2102 33.147 35.1297 33.935 35.2865C34.7231 35.4432 35.4469 35.8301 36.0151 36.3983C36.5832 36.9664 36.9702 37.6903 37.1269 38.4784C37.2837 39.2664 37.2032 40.0832 36.8957 40.8256C36.5883 41.5679 36.0675 42.2024 35.3995 42.6488C34.7314 43.0951 33.946 43.3334 33.1425 43.3334C32.065 43.3334 31.0317 42.9054 30.2698 42.1435C29.508 41.3817 29.08 40.3484 29.08 39.2709ZM49.3925 54.1667H46.4106C46.0361 52.3711 45.3006 50.6703 44.2489 49.1675C43.1973 47.6646 41.8512 46.3911 40.2925 45.4242C41.7849 43.7208 42.612 41.5357 42.6216 39.2709C42.6216 36.7569 41.6229 34.3458 39.8453 32.5681C38.0676 30.7904 35.6565 29.7917 33.1425 29.7917C30.6284 29.7917 28.2174 30.7904 26.4397 32.5681C24.662 34.3458 23.6633 36.7569 23.6633 39.2709C23.6729 41.5357 24.5 43.7208 25.9925 45.4242C24.4332 46.3909 23.0867 47.6642 22.0345 49.1671C20.9823 50.6699 20.2465 52.3709 19.8716 54.1667H16.8925V26.1924L33.1425 11.7488L49.3925 26.1924V54.1667Z" fill="#212121"/>
</svg>
