<svg width="209" height="209" viewBox="0 0 209 209" fill="none" xmlns="http://www.w3.org/2000/svg">
<path opacity="0.3" fill-rule="evenodd" clip-rule="evenodd" d="M92.5634 18.4381C95.6313 15.3742 99.7361 13.5713 104.068 13.3852C108.4 13.1991 112.644 14.6433 115.963 17.4327L117.073 18.4467L133.539 34.9047H156.818C161.19 34.9055 165.399 36.5581 168.604 39.5313C171.809 42.5046 173.772 46.5789 174.099 50.9381L174.151 52.2381V75.5167L190.618 91.9834C193.684 95.0517 195.489 99.1583 195.675 103.492C195.861 107.826 194.415 112.072 191.623 115.392L190.609 116.493L174.143 132.959V156.238C174.144 160.611 172.493 164.823 169.519 168.029C166.546 171.236 162.47 173.2 158.109 173.528L156.818 173.571H133.548L117.081 190.038C114.013 193.104 109.907 194.909 105.573 195.095C101.239 195.281 96.9927 193.835 93.6728 191.043L92.5721 190.038L76.1054 173.571H52.8181C48.4451 173.573 44.2332 171.921 41.0267 168.948C37.8202 165.974 35.8561 161.899 35.5281 157.538L35.4848 156.238V132.959L19.0181 116.493C15.9518 113.424 14.1474 109.318 13.9613 104.984C13.7752 100.65 15.2208 96.404 18.0128 93.0841L19.0181 91.9834L35.4848 75.5167V52.2381C35.4856 47.8666 37.1381 43.6568 40.1114 40.4521C43.0846 37.2475 47.1589 35.2846 51.5181 34.9567L52.8181 34.9047H76.0968L92.5634 18.4381Z" fill="#00A859"/>
<g clip-path="url(#clip0_268_6162)">
<path d="M128.096 80.2915L71.562 90.5856C66.8108 91.4456 65.4427 97.6181 69.387 100.407L89.9464 115.045C90.7929 115.657 91.4209 116.443 91.8304 117.404L101.554 140.694C103.401 145.158 109.723 145.19 111.613 140.747L134.166 87.8944C134.547 86.9871 134.676 85.9942 134.54 85.0199C134.404 84.0456 134.009 83.1258 133.395 82.357C132.781 81.5882 131.972 80.9989 131.052 80.6509C130.131 80.3028 129.135 80.2089 128.166 80.3789L128.096 80.2915Z" fill="#00A859"/>
</g>
<defs>
<clipPath id="clip0_268_6162">
<rect width="83.871" height="89.4624" fill="white" transform="translate(48.6133 92.6677) rotate(-38.6054)"/>
</clipPath>
</defs>
</svg>
