<svg width="25" height="25" viewBox="0 0 25 25" fill="none" xmlns="http://www.w3.org/2000/svg">
<path d="M15.6629 3.46492C15.9513 3.39863 16.2533 3.42379 16.5268 3.53691C16.8003 3.65004 17.0317 3.84551 17.1891 4.0962L18.6055 6.35767C18.7197 6.53982 18.8737 6.69377 19.0558 6.80798L21.3173 8.22443C21.5685 8.38165 21.7645 8.61328 21.8779 8.88708C21.9913 9.16088 22.0165 9.46323 21.95 9.75203L21.3515 12.3512C21.3032 12.5613 21.3032 12.7796 21.3515 12.9896L21.95 15.5903C22.0159 15.8786 21.9903 16.1804 21.8769 16.4536C21.7636 16.7268 21.568 16.958 21.3173 17.115L19.0558 18.5329C18.8737 18.6471 18.7197 18.801 18.6055 18.9832L17.1891 21.2447C17.0319 21.4956 16.8005 21.6914 16.527 21.8048C16.2535 21.9182 15.9515 21.9435 15.6629 21.8774L13.0623 21.2789C12.8527 21.2308 12.6349 21.2308 12.4253 21.2789L9.82467 21.8774C9.53608 21.9435 9.23404 21.9182 8.96053 21.8048C8.68703 21.6914 8.45563 21.4956 8.29849 21.2447L6.88204 18.9832C6.76743 18.8009 6.61298 18.6469 6.43032 18.5329L4.17026 17.1164C3.91932 16.9593 3.72356 16.7279 3.61017 16.4544C3.49678 16.1809 3.4714 15.8789 3.53756 15.5903L4.13464 12.9896C4.18292 12.7796 4.18292 12.5613 4.13464 12.3512L3.53614 9.75203C3.46979 9.46308 3.49523 9.16063 3.60889 8.88681C3.72256 8.613 3.91879 8.38145 4.17026 8.22443L6.43032 6.80798C6.61298 6.69393 6.76743 6.53998 6.88204 6.35767L8.29849 4.0962C8.45574 3.84578 8.68699 3.65049 8.96019 3.53738C9.23339 3.42427 9.53501 3.39895 9.82325 3.46492L12.4253 4.062C12.6349 4.11006 12.8527 4.11006 13.0623 4.062L15.6629 3.46492Z" stroke="black" stroke-width="1.425"/>
<path d="M9.20312 13.4338L12.103 16.2112L16.2854 9.12891" stroke="black" stroke-width="1.425" stroke-linecap="round" stroke-linejoin="round"/>
</svg>
