<svg width="25" height="25" viewBox="0 0 25 25" fill="none" xmlns="http://www.w3.org/2000/svg">
<path d="M16.2205 15.2729C15.2337 14.3958 13.9594 13.9113 12.6392 13.9113C11.319 13.9113 10.0447 14.3958 9.05797 15.2729M19.0822 12.4111C17.3346 10.777 15.0314 9.86792 12.6387 9.86792C10.2461 9.86792 7.94292 10.777 6.19531 12.4111" stroke="#474747" stroke-width="1.5" stroke-linecap="round" stroke-linejoin="round"/>
<path d="M21.6261 9.25068C19.1526 7.04415 15.9538 5.82471 12.6392 5.82471C9.32459 5.82471 6.1258 7.04415 3.65234 9.25068" stroke="#474747" stroke-width="1.5" stroke-linecap="round" stroke-linejoin="round"/>
<path d="M12.6406 20.2141C12.344 20.2141 12.0539 20.1261 11.8073 19.9613C11.5606 19.7965 11.3683 19.5622 11.2548 19.2881C11.1413 19.014 11.1116 18.7124 11.1694 18.4215C11.2273 18.1305 11.3702 17.8632 11.58 17.6535C11.7897 17.4437 12.057 17.3008 12.348 17.2429C12.639 17.1851 12.9406 17.2148 13.2147 17.3283C13.4887 17.4418 13.723 17.6341 13.8878 17.8808C14.0527 18.1274 14.1406 18.4174 14.1406 18.7141C14.1406 19.1119 13.9826 19.4935 13.7013 19.7748C13.42 20.0561 13.0385 20.2141 12.6406 20.2141Z" fill="#474747"/>
</svg>
